# xmcd
#
# Track frame offsets: 
#        150
#        9405
#        20052
#        30972
#        40837
#        55607
#        66352
#        76082
#        87420
#        98155
#        110165
#        120612
#
# Disc length: 1747 seconds
#
# Revision: 0
# Processed by: cddbd v1.5.2PL0 Copyright (c) Steve Scherf et al.
# Submitted via: ExactAudioCopy v0.95b3
#
DISCID=8e06d10c
DTITLE=The Louvin Brothers - Country Love Ballads
DYEAR=1959
DGENRE=Country
TTITLE0=Are You Wasting My Time
TTITLE1=If I Could Only Win Your Love
TTITLE2=Today
TTITLE3=Read What's In My Heart
TTITLE4=I Wonder If You Know
TTITLE5=Memories And Tears
TTITLE6=On My Way To The Show
TTITLE7=My Heart Was Trampled On The Street
TTITLE8=She Will Get Lonesome
TTITLE9=Red Hen Hop
TTITLE10=Blue
TTITLE11=Send Me The Pillow You Dream On
EXTD=
EXTT0=
EXTT1=
EXTT2=
EXTT3=
EXTT4=
EXTT5=
EXTT6=
EXTT7=
EXTT8=
EXTT9=
EXTT10=
EXTT11=
PLAYORDER=
